PathFileType	4	(X/Y/Z)	./resultDataOpenSim/trcMotMarkerGrf/sub10/qtm-14-05.trc
DataRate	CameraRate	NumFrames	NumMarkers	Units	OrigDataRate	OrigDataStartFrame	OrigNumFrames
250.000000	250.000000	8	24	m	250.000000	61	486
Frame#	Time	L.Toe.Tip			R.Toe.Tip			L.Ankle.Lat			R.Ankle.Lat			L.Ankle.Med			R.Ankle.Med			L.Heel			R.Heel			L.Knee.Lat			R.Knee.Lat			L.Knee.Med			R.Knee.Med			L.Thigh.Upper			R.Thigh.Upper			L.ASIS			R.ASIS			V.Sacral			L.Acromium			R.Acromium			C7			L.Elbow			R.Elbow			L.Wrist.Lat			R.Wrist.Lat
		X1	Y1	Z1	X2	Y2	Z2	X3	Y3	Z3	X4	Y4	Z4	X5	Y5	Z5	X6	Y6	Z6	X7	Y7	Z7	X8	Y8	Z8	X9	Y9	Z9	X10	Y10	Z10	X11	Y11	Z11	X12	Y12	Z12	X13	Y13	Z13	X14	Y14	Z14	X15	Y15	Z15	X16	Y16	Z16	X17	Y17	Z17	X18	Y18	Z18	X19	Y19	Z19	X20	Y20	Z20	X21	Y21	Z21	X22	Y22	Z22	X23	Y23	Z23	X24	Y24	Z24

61	0.24	-1.3592456	0.082401883	-0.21372344	-0.78541075	0.038863671	-0.013250347	-1.3560493	0.22051519	-0.23752074	-0.92624417	0.052695922	0.025663775	-1.3289151	0.2124793	-0.15840851	-0.90995463	0.080538689	-0.058762495	-1.3983828	0.26757769	-0.18934916	-0.97821983	0.029011916	-0.022434894	-1.0369825	0.42177026	-0.25460886	-0.90854889	0.45195718	0.059977483	-1.0254584	0.38282755	-0.13768207	-0.9069039	0.4597981	-0.067851081	-1.0269046	0.79803542	-0.26791174	-0.98485661	0.86681983	0.11164088	-0.96326142	0.91191831	-0.21497802	-0.92653418	0.95021424	0.019117643	-1.145355	0.94499364	-0.072165589	-1.0166728	1.4132071	-0.23082691	-1.0292063	1.3890059	0.090289802	-1.105823	1.4284234	-0.071063646	-1.1367942	1.0921911	-0.28724081	-1.1370077	1.062199	0.12615797	-1.0226388	0.87849919	-0.33339538	-1.0663832	0.84110958	0.19688522
62	0.244	-1.3448411	0.083304141	-0.21304919	-0.78541514	0.038855006	-0.013251082	-1.3441992	0.22140781	-0.2365098	-0.92619078	0.05271613	0.025624089	-1.3169982	0.21375037	-0.15732759	-0.90995966	0.080553142	-0.058798765	-1.3881063	0.26761703	-0.18821387	-0.97823397	0.029048203	-0.022449391	-1.0246335	0.42279165	-0.25430738	-0.90700701	0.45192652	0.060426395	-1.0135038	0.38424445	-0.13672053	-0.90545091	0.45974071	-0.067475916	-1.0212542	0.79909725	-0.26712977	-0.9803722	0.86730515	0.11202874	-0.95814927	0.91306449	-0.21467152	-0.92153973	0.95098496	0.020092817	-1.1403885	0.9457316	-0.071853919	-1.011153	1.4140938	-0.23017431	-1.023078	1.3898402	0.090946568	-1.1001794	1.4294225	-0.070235915	-1.1319397	1.0933002	-0.28627435	-1.1297914	1.062656	0.12773418	-1.0182727	0.87935599	-0.3324351	-1.0564794	0.84161742	0.19709383
63	0.248	-1.3304747	0.083903845	-0.21194569	-0.78543085	0.038855752	-0.013242148	-1.3322214	0.22207692	-0.23545903	-0.92612982	0.05273558	0.025598504	-1.3049907	0.21483411	-0.15625588	-0.90998098	0.080577466	-0.058823318	-1.3777245	0.26730677	-0.18709017	-0.97824102	0.029082055	-0.022461278	-1.0130048	0.42394013	-0.25370334	-0.90551275	0.45187639	0.060866095	-1.0015136	0.38576903	-0.13577857	-0.90406509	0.45968743	-0.067088455	-1.0154306	0.80031774	-0.26634756	-0.97579582	0.86780631	0.11243686	-0.95306237	0.91424419	-0.21439909	-0.9166247	0.95178439	0.021049949	-1.1354293	0.94650065	-0.071386432	-1.0056818	1.414988	-0.22953097	-1.0170079	1.3907074	0.0915819	-1.0945522	1.4304253	-0.069423989	-1.1271042	1.0944122	-0.28536335	-1.1228512	1.0632007	0.1291344	-1.0139741	0.88023433	-0.33149386	-1.0463609	0.842197	0.19728991
64	0.252	-1.3158687	0.084280886	-0.21062921	-0.78545908	0.038866684	-0.013223282	-1.3201275	0.22251094	-0.23437697	-0.9260812	0.052753386	0.025586121	-1.292873	0.21577429	-0.15520149	-0.91002056	0.080612336	-0.058835177	-1.3671343	0.26668631	-0.18604927	-0.97823586	0.029112375	-0.02249207	-1.0017014	0.42519867	-0.25291143	-0.9040252	0.45181572	0.061300513	-0.98974195	0.38735364	-0.13482101	-0.90270284	0.45964085	-0.066684535	-1.0095484	0.80164962	-0.26559156	-0.97124314	0.86829565	0.11283978	-0.94800068	0.91545514	-0.21414792	-0.91176972	0.95257645	0.021988914	-1.1304798	0.94729967	-0.070802506	-1.0002406	1.4159041	-0.22888981	-1.0109736	1.391595	0.092199378	-1.0889318	1.4314301	-0.068630988	-1.1222855	1.0955274	-0.28449819	-1.1163002	1.0637547	0.13010338	-1.009785	0.88112146	-0.33059961	-1.0359983	0.84285029	0.19749241
65	0.256	-1.3007968	0.084527169	-0.20931693	-0.78550046	0.038887673	-0.013195235	-1.3079016	0.2227058	-0.23329251	-0.92603709	0.052772431	0.025581324	-1.280574	0.21659195	-0.15416165	-0.91007838	0.080657638	-0.058835376	-1.3563007	0.26578693	-0.18510389	-0.97821204	0.029138761	-0.022570855	-0.99044679	0.42654747	-0.25200336	-0.90249606	0.45176581	0.061734585	-0.97822224	0.38897524	-0.13381215	-0.90140179	0.459603	-0.066273663	-1.0037905	0.80302632	-0.26488203	-0.96678678	0.86874589	0.11321801	-0.94295813	0.91669404	-0.21390895	-0.90696147	0.95333639	0.022909274	-1.1255423	0.94813374	-0.07015742	-0.99481081	1.4168446	-0.22825168	-1.0049562	1.3924927	0.092798844	-1.0833196	1.4324344	-0.06786761	-1.1174857	1.0966481	-0.28367011	-1.1099691	1.0641746	0.13061014	-1.0056489	0.88201983	-0.32972862	-1.0254426	0.84356679	0.19769759
66	0.26	-1.2853112	0.084661872	-0.20808171	-0.78555507	0.038916967	-0.013160449	-1.2955273	0.22265141	-0.2322119	-0.92593713	0.052798395	0.025576783	-1.2681335	0.21724626	-0.15311976	-0.91014897	0.08071678	-0.058826145	-1.3452378	0.264619	-0.18421409	-0.97817333	0.029162555	-0.02269675	-0.97914734	0.42797136	-0.25103863	-0.90089529	0.45175225	0.062174352	-0.96687161	0.3906446	-0.13274592	-0.90022008	0.45955479	-0.065867489	-0.99828837	0.80438716	-0.26422491	-0.96240719	0.86915924	0.11357627	-0.93792625	0.91795336	-0.21367891	-0.90219127	0.95407222	0.023810229	-1.1206095	0.94901602	-0.069504046	-0.98939156	1.4177984	-0.22763065	-0.99898099	1.3934038	0.093388026	-1.0777201	1.4334395	-0.067143175	-1.1127081	1.0977784	-0.2828753	-1.1032659	1.0642921	0.13103288	-1.0014822	0.88293771	-0.32884011	-1.0148905	0.84431666	0.19785657
67	0.264	-1.2695889	0.084650085	-0.20690036	-0.7856221	0.038951462	-0.013120473	-1.2830184	0.222327	-0.23111012	-0.92567915	0.052831377	0.02556156	-1.2556295	0.21764656	-0.15204558	-0.91021638	0.080800581	-0.058805365	-1.3339661	0.2631752	-0.18332659	-0.9781398	0.029189225	-0.02282412	-0.96785578	0.42944237	-0.2500745	-0.89921706	0.4517876	0.062637188	-0.9556526	0.39236829	-0.13164827	-0.89913065	0.45947459	-0.065467053	-0.99304492	0.80569842	-0.26362125	-0.95804259	0.8695537	0.11393324	-0.93290881	0.91922363	-0.21345609	-0.89746327	0.95480796	0.024689525	-1.1156629	0.94996087	-0.068883283	-0.98400311	1.4187588	-0.22704082	-0.99307701	1.3943367	0.093974152	-1.0721312	1.4344469	-0.066455469	-1.1079518	1.0989184	-0.28211099	-1.0955189	1.0640324	0.13186963	-0.99725256	0.88387726	-0.32791732	-1.0045392	0.8450763	0.19791934
68	0.268	-1.2537381	0.084461636	-0.20572521	-0.78570083	0.038988507	-0.013074013	-1.2704002	0.22170217	-0.22996985	-0.92519363	0.052859033	0.025522261	-1.2430427	0.21771337	-0.15092337	-0.9102602	0.080923254	-0.058764342	-1.3224914	0.26144704	-0.18240831	-0.9781316	0.029226422	-0.022909872	-0.95668725	0.43091869	-0.24913026	-0.89748189	0.4518719	0.063142202	-0.94456987	0.3941325	-0.1305487	-0.89805073	0.45937472	-0.065071998	-0.98797254	0.8069593	-0.26307697	-0.95363014	0.86994077	0.11431412	-0.92792908	0.92050205	-0.21323821	-0.89279661	0.95555596	0.025542354	-1.1106849	0.95096949	-0.068321333	-0.97866073	1.4197283	-0.22647571	-0.98722743	1.3952878	0.094549754	-1.0665446	1.4354564	-0.065790586	-1.1032114	1.1000587	-0.28137208	-1.0866897	1.0635521	0.13326504	-0.99296418	0.88483569	-0.32696166	-0.99440458	0.84585502	0.19788588
